<!-- <?xml version="1.0" encoding="UTF-8" standalone="no"?><!DOCTYPE svg PUBLIC "-//W3C//DTD SVG 1.1//EN" "http://www.w3.org/Graphics/SVG/1.1/DTD/svg11.dtd"><svg width="100%" height="100%" viewBox="0 0 800 800" version="1.1" xmlns="http://www.w3.org/2000/svg" xmlns:xlink="http://www.w3.org/1999/xlink" xml:space="preserve" xmlns:serif="http://www.serif.com/" style="fill-rule:evenodd;clip-rule:evenodd;stroke-linejoin:round;stroke-miterlimit:2;"><path d="M309.763,43.096c6.251,-6.251 14.73,-9.763 23.57,-9.763l266.667,0c55.23,0 100,44.772 100,100l0,100c0,18.41 -14.923,33.334 -33.333,33.334c-18.41,-0 -33.334,-14.924 -33.334,-33.334l0,-100c0,-18.409 -14.923,-33.333 -33.333,-33.333l-233.333,-0l-0,166.667c-0,18.409 -14.924,33.333 -33.334,33.333l-166.666,0l-0,366.667c-0,18.41 14.924,33.333 33.333,33.333l166.667,0c18.41,0 33.333,14.923 33.333,33.333c-0,18.41 -14.923,33.334 -33.333,33.334l-166.667,-0c-55.228,-0 -100,-44.77 -100,-100l-0,-400c-0,-8.841 3.512,-17.319 9.763,-23.571l200,-200Zm-95.956,190.237l86.193,0l-0,-86.193l-86.193,86.193Zm394.526,458.334c0,23.013 -18.653,41.666 -41.666,41.666c-23.014,0 -41.667,-18.653 -41.667,-41.666c0,-23.014 18.653,-41.667 41.667,-41.667c23.013,0 41.666,18.653 41.666,41.667Zm-103.823,-259.524c8.82,-16.823 31.593,-32.143 62.157,-32.143c42.766,0 66.666,27.817 66.666,50c0,22.183 -23.9,50 -66.666,50c-18.41,0 -33.334,14.923 -33.334,33.333l0,33.334c0,18.41 14.924,33.333 33.334,33.333c18.41,0 33.333,-14.923 33.333,-33.333l-0,-3.78c54.387,-12.437 100,-54.65 100,-112.887c-0,-69.867 -65.643,-116.667 -133.333,-116.667c-51.447,0 -99.16,25.817 -121.2,67.857c-8.55,16.303 -2.26,36.45 14.043,45c16.303,8.547 36.45,2.26 45,-14.047Z" style="fill:#fff8f8;"/></svg> -->


<!-- <svg xmlns="http://www.w3.org/2000/svg" viewBox="0 0 24 24" stroke-width="1.5" stroke="currentColor" class="size-6">
  <path style="fill:#fff;fill-rule:nonzero;" stroke-linecap="round" stroke-linejoin="round" d="m16.862 4.487 1.687-1.688a1.875 1.875 0 1 1 2.652 2.652L10.582 16.07a4.5 4.5 0 0 1-1.897 1.13L6 18l.8-2.685a4.5 4.5 0 0 1 1.13-1.897l8.932-8.931Zm0 0L19.5 7.125M18 14v4.75A2.25 2.25 0 0 1 15.75 21H5.25A2.25 2.25 0 0 1 3 18.75V8.25A2.25 2.25 0 0 1 5.25 6H10" />
</svg> -->

<svg xmlns:xlink="http://www.w3.org/1999/xlink" xmlns="http://www.w3.org/2000/svg" fill="#000000" width="128" height="128" viewBox="0 0 24 24">
  <path style="fill:#fff;fill-rule:nonzero;" fill-rule="evenodd" d="M14.8024118,6.44526791 L8.69610276,12.549589 C8.29095108,12.9079238 8.04030835,13.4092335 8,13.8678295 L8,16.0029438 L10.0639829,16.004826 C10.5982069,15.9670062 11.0954869,15.7183782 11.4947932,15.2616227 L17.556693,9.19972295 L14.8024118,6.44526791 Z M16.2168556,5.0312846 L18.9709065,7.78550938 L19.8647941,6.89162181 C19.9513987,6.80501747 20.0000526,6.68755666 20.0000526,6.56507948 C20.0000526,6.4426023 19.9513987,6.32514149 19.8647932,6.23853626 L17.7611243,4.13485646 C17.6754884,4.04854589 17.5589355,4 17.43735,4 C17.3157645,4 17.1992116,4.04854589 17.1135757,4.13485646 L16.2168556,5.0312846 Z M22,13 L22,20 C22,21.1045695 21.1045695,22 20,22 L4,22 C2.8954305,22 2,21.1045695 2,20 L2,4 C2,2.8954305 2.8954305,2 4,2 L11,2 L11,4 L4,4 L4,20 L20,20 L20,13 L22,13 Z M17.43735,2 C18.0920882,2 18.7197259,2.26141978 19.1781068,2.7234227 L21.2790059,4.82432181 C21.7406843,5.28599904 22.0000526,5.91216845 22.0000526,6.56507948 C22.0000526,7.21799052 21.7406843,7.84415992 21.2790068,8.30583626 L12.9575072,16.6237545 C12.2590245,17.4294925 11.2689,17.9245308 10.1346,18.0023295 L6,18.0023295 L6,17.0023295 L6.00324765,13.7873015 C6.08843822,12.7328366 6.57866679,11.7523321 7.32649633,11.0934196 L15.6953877,2.72462818 C16.1563921,2.2608295 16.7833514,2 17.43735,2 Z"/>
</svg>