<!-- <?xml version="1.0" encoding="UTF-8" standalone="no"?><!DOCTYPE svg PUBLIC "-//W3C//DTD SVG 1.1//EN" "http://www.w3.org/Graphics/SVG/1.1/DTD/svg11.dtd"><svg width="100%" height="100%" viewBox="0 0 800 800" version="1.1" xmlns="http://www.w3.org/2000/svg" xmlns:xlink="http://www.w3.org/1999/xlink" xml:space="preserve" xmlns:serif="http://www.serif.com/" style="fill-rule:evenodd;clip-rule:evenodd;stroke-linecap:round;"><path d="M733.333,733.333l-666.666,0" style="fill:none;fill-rule:nonzero;stroke:#fff;stroke-width:50px;"/><path d="M66.667,366.667l270.863,-216.69c36.523,-29.217 88.417,-29.217 124.94,-0l270.863,216.69" style="fill:none;fill-rule:nonzero;stroke:#fff;stroke-width:50px;"/><path d="M516.667,183.333l0,-66.666c0,-9.205 7.463,-16.667 16.666,-16.667l83.334,0c9.203,0 16.666,7.462 16.666,16.667l0,166.666" style="fill:none;fill-rule:nonzero;stroke:#fff;stroke-width:50px;"/><path d="M133.333,733.333l0,-416.666" style="fill:none;fill-rule:nonzero;stroke:#fbfcff;stroke-width:50px;"/><path d="M666.667,733.333l0,-416.666" style="fill:none;fill-rule:nonzero;stroke:#fff;stroke-width:50px;"/><path d="M500,733.333l0,-166.666c0,-47.14 0,-70.71 -14.643,-85.357c-14.647,-14.643 -38.217,-14.643 -85.357,-14.643c-47.14,0 -70.711,0 -85.355,14.643c-14.645,14.647 -14.645,38.217 -14.645,85.357l0,166.666" style="fill:none;fill-rule:nonzero;stroke:#fff;stroke-width:50px;stroke-linecap:butt;"/><path d="M466.667,316.667c-0,36.82 -29.847,66.666 -66.667,66.666c-36.82,-0 -66.667,-29.846 -66.667,-66.666c0,-36.819 29.847,-66.667 66.667,-66.667c36.82,-0 66.667,29.848 66.667,66.667Z" style="fill:none;fill-rule:nonzero;stroke:#fff;stroke-width:50px;stroke-linecap:butt;"/></svg> -->

<!-- <svg xmlns="http://www.w3.org/2000/svg" fill="none" viewBox="0 0 24 24" stroke-width="1.5" stroke="currentColor" class="size-6" >
  <path style="fill:#fff;fill-rule:nonzero;" stroke-linecap="round" stroke-linejoin="round" d="m2.25 12 8.954-8.955c.44-.439 1.152-.439 1.591 0L21.75 12M4.5 9.75v10.125c0 .621.504 1.125 1.125 1.125H9.75v-4.875c0-.621.504-1.125 1.125-1.125h2.25c.621 0 1.125.504 1.125 1.125V21h4.125c.621 0 1.125-.504 1.125-1.125V9.75M8.25 21h8.25" />
</svg> -->

<svg xmlns="http://www.w3.org/2000/svg" viewBox="0 0 24 24" fill="currentColor" class="size-6" style="fill-rule:evenodd;clip-rule:evenodd;stroke-linecap:round;">
  <path style="fill:#fff;fill-rule:nonzero;" d="M19.006 3.705a.75.75 0 1 0-.512-1.41L6 6.838V3a.75.75 0 0 0-.75-.75h-1.5A.75.75 0 0 0 3 3v4.93l-1.006.365a.75.75 0 0 0 .512 1.41l16.5-6Z" />
  <path style="fill:#fff;fill-rule:nonzero;" fill-rule="evenodd" d="M3.019 11.114 18 5.667v3.421l4.006 1.457a.75.75 0 1 1-.512 1.41l-.494-.18v8.475h.75a.75.75 0 0 1 0 1.5H2.25a.75.75 0 0 1 0-1.5H3v-9.129l.019-.007ZM18 20.25v-9.566l1.5.546v9.02H18Zm-9-6a.75.75 0 0 0-.75.75v4.5c0 .414.336.75.75.75h3a.75.75 0 0 0 .75-.75V15a.75.75 0 0 0-.75-.75H9Z" clip-rule="evenodd" />
</svg>
