<!-- <?xml version="1.0" encoding="UTF-8" standalone="no"?><!DOCTYPE svg PUBLIC "-//W3C//DTD SVG 1.1//EN" "http://www.w3.org/Graphics/SVG/1.1/DTD/svg11.dtd"><svg width="100%" height="100%" viewBox="0 0 800 800" version="1.1" xmlns="http://www.w3.org/2000/svg" xmlns:xlink="http://www.w3.org/1999/xlink" xml:space="preserve" xmlns:serif="http://www.serif.com/" style="fill-rule:evenodd;clip-rule:evenodd;stroke-linejoin:round;stroke-miterlimit:2;"><path d="M400,535.4c-125.875,0.55 -231.075,88.425 -258.15,206.175l-0.35,1.8c-0.45,2 -0.725,4.3 -0.725,6.65c-0,17.25 14,31.25 31.25,31.25c14.9,0 27.375,-10.45 30.5,-24.4l0.05,-0.2c20.625,-91.45 101.175,-158.75 197.425,-158.75c96.25,0 176.825,67.3 197.175,157.425l0.25,1.35c3.175,14.15 15.625,24.55 30.525,24.55c17.25,0 31.25,-13.975 31.25,-31.25c0,-2.375 -0.275,-4.675 -0.775,-6.9l0.05,0.2c-27.45,-119.5 -132.625,-207.375 -258.425,-207.9l-0.05,-0Zm-170.9,-257.85c71.45,0 129.4,-57.925 129.4,-129.4c0,-71.475 -57.925,-129.4 -129.4,-129.4c-71.45,0 -129.4,57.925 -129.4,129.4c0.1,71.425 57.975,129.3 129.375,129.4l0.025,0Zm0,-196.3c36.95,0 66.9,29.95 66.9,66.9c0,36.95 -29.95,66.9 -66.9,66.9c-36.95,0 -66.9,-29.95 -66.9,-66.9c0.05,-36.925 29.975,-66.85 66.9,-66.9Zm344.05,196.3c71.45,0 129.4,-57.925 129.4,-129.4c0,-71.475 -57.925,-129.4 -129.4,-129.4c-71.45,0 -129.4,57.925 -129.4,129.4c0.1,71.425 57.975,129.3 129.375,129.4l0.025,0Zm0,-196.3c36.95,0 66.9,29.95 66.9,66.9c0,36.95 -29.95,66.9 -66.9,66.9c-36.95,0 -66.9,-29.95 -66.9,-66.9c0.05,-36.925 29.975,-66.85 66.9,-66.9Zm209.625,412.1c-21.6,-102.775 -111.5,-178.85 -219.175,-178.85c-9.875,0 -19.6,0.65 -29.125,1.875l1.125,-0.125c-23.25,-52.9 -75.175,-89.2 -135.6,-89.2c-60.35,0 -112.25,36.2 -135.175,88.1l-0.375,0.95c-6.65,-0.85 -14.5,-1.425 -22.45,-1.575l-0.225,0c-108.25,0.475 -198.7,76.025 -222.025,177.25l-0.3,1.55c-0.45,2 -0.725,4.325 -0.725,6.7c0,17.275 14,31.275 31.275,31.275c14.9,0 27.35,-10.425 30.5,-24.375l0.05,-0.2c17.1,-74.525 82.725,-129.35 161.2,-129.65l0.025,0c3.6,0 7.05,0.5 10.575,0.725c1.4,80.45 66.975,145.125 147.625,145.125c80.6,0 146.125,-64.6 147.625,-144.85l0,-0.15c4.275,-0.325 8.475,-0.875 12.85,-0.875c78.5,0.3 144.125,55.1 161.05,128.5l0.225,1.125c3.15,14.175 15.625,24.6 30.525,24.6c17.25,0 31.225,-13.975 31.225,-31.225c0,-2.35 -0.25,-4.65 -0.75,-6.85l0.05,0.2l0,-0.05Zm-382.775,-32.95l-0.025,0c-47.175,0 -85.425,-38.25 -85.425,-85.425c0,-47.175 38.25,-85.425 85.425,-85.425c47.175,0 85.425,38.25 85.425,85.425l0,0.025c-0.075,47.15 -38.25,85.325 -85.4,85.4Z" style="fill:#fff;fill-rule:nonzero;"/></svg> -->


<!-- <svg xmlns="http://www.w3.org/2000/svg" fill="none"  viewBox="0 0 24 24" stroke-width="1.5" stroke="currentColor" >
  <path style="fill:#fff;fill-rule:nonzero;" stroke-linecap="round" stroke-linejoin="round" d="M15 19.128a9.38 9.38 0 0 0 2.625.372 9.337 9.337 0 0 0 4.121-.952 4.125 4.125 0 0 0-7.533-2.493M15 19.128v-.003c0-1.113-.285-2.16-.786-3.07M15 19.128v.106A12.318 12.318 0 0 1 8.624 21c-2.331 0-4.512-.645-6.374-1.766l-.001-.109a6.375 6.375 0 0 1 11.964-3.07M12 6.375a3.375 3.375 0 1 1-6.75 0 3.375 3.375 0 0 1 6.75 0Zm8.25 2.25a2.625 2.625 0 1 1-5.25 0 2.625 2.625 0 0 1 5.25 0Z" />
</svg> -->


<svg xmlns:xlink="http://www.w3.org/1999/xlink" xmlns="http://www.w3.org/2000/svg" width="128" height="128" viewBox="0 0 24 24" fill="none">
<path style="fill:#fff;fill-rule:nonzero;" d="M17.5291 7.77C17.4591 7.76 17.3891 7.76 17.3191 7.77C15.7691 7.72 14.5391 6.45 14.5391 4.89C14.5391 3.3 15.8291 2 17.4291 2C19.0191 2 20.3191 3.29 20.3191 4.89C20.3091 6.45 19.0791 7.72 17.5291 7.77Z" fill="#292D32"/>
<path style="fill:#fff;fill-rule:nonzero;" d="M20.7916 14.7004C19.6716 15.4504 18.1016 15.7304 16.6516 15.5404C17.0316 14.7204 17.2316 13.8104 17.2416 12.8504C17.2416 11.8504 17.0216 10.9004 16.6016 10.0704C18.0816 9.8704 19.6516 10.1504 20.7816 10.9004C22.3616 11.9404 22.3616 13.6504 20.7916 14.7004Z" fill="#292D32"/>
<path style="fill:#fff;fill-rule:nonzero;" d="M6.44016 7.77C6.51016 7.76 6.58016 7.76 6.65016 7.77C8.20016 7.72 9.43016 6.45 9.43016 4.89C9.43016 3.29 8.14016 2 6.54016 2C4.95016 2 3.66016 3.29 3.66016 4.89C3.66016 6.45 4.89016 7.72 6.44016 7.77Z" fill="#292D32"/>
<path style="fill:#fff;fill-rule:nonzero;" d="M6.55109 12.8506C6.55109 13.8206 6.76109 14.7406 7.14109 15.5706C5.73109 15.7206 4.26109 15.4206 3.18109 14.7106C1.60109 13.6606 1.60109 11.9506 3.18109 10.9006C4.25109 10.1806 5.76109 9.89059 7.18109 10.0506C6.77109 10.8906 6.55109 11.8406 6.55109 12.8506Z" fill="#292D32"/>
<path style="fill:#fff;fill-rule:nonzero;" d="M12.1208 15.87C12.0408 15.86 11.9508 15.86 11.8608 15.87C10.0208 15.81 8.55078 14.3 8.55078 12.44C8.56078 10.54 10.0908 9 12.0008 9C13.9008 9 15.4408 10.54 15.4408 12.44C15.4308 14.3 13.9708 15.81 12.1208 15.87Z" fill="#292D32"/>
<path style="fill:#fff;fill-rule:nonzero;" d="M8.87078 17.9406C7.36078 18.9506 7.36078 20.6106 8.87078 21.6106C10.5908 22.7606 13.4108 22.7606 15.1308 21.6106C16.6408 20.6006 16.6408 18.9406 15.1308 17.9406C13.4208 16.7906 10.6008 16.7906 8.87078 17.9406Z" fill="#292D32"/>
</svg>
